<?xml version="1.0"?>
<svg version="1.1" xmlns="http://www.w3.org/2000/svg" width="200px" height="54px" style=""><path fill="#5e4b13" d="M1.155,46.8l0-2.805l2.475-0.99l0-15.51l-2.475-0.99l0-2.805l7.59-0.165l2.508,0c5.412,0,8.58,2.244,8.58,6.732c0,3.102-1.485,5.115-3.729,6.237c0.363,0.429,0.858,1.056,1.386,2.145l2.211,4.521l2.244,0.825l0,2.805l-6.105,0l-2.772-6.105c-1.122-2.508-1.419-3.036-3.168-3.036l-1.155,0l0,5.346l2.376,0.99l0,2.805l-9.966,0z M8.745,34.194l1.881,0c2.607,0,4.125-1.254,4.125-3.465c0-1.881-1.254-3.234-3.3-3.234l-2.706,0l0,6.699z M34.63383,28.65c5.346,0,8.316,3.234,8.316,8.91c0,5.94-3.465,9.57-8.811,9.57c-5.379,0-8.415-2.805-8.415-9.075c0-5.94,3.531-9.405,8.91-9.405z M34.46883,32.61c-2.409,0-3.63,1.32-3.63,5.28c0,3.63,1.056,5.28,3.465,5.28c2.376,0,3.531-1.485,3.531-5.445c0-3.366-0.99-5.115-3.366-5.115z M56.46366,28.65c5.346,0,8.316,3.234,8.316,8.91c0,5.94-3.465,9.57-8.811,9.57c-5.379,0-8.415-2.805-8.415-9.075c0-5.94,3.531-9.405,8.91-9.405z M56.29866,32.61c-2.409,0-3.63,1.32-3.63,5.28c0,3.63,1.056,5.28,3.465,5.28c2.376,0,3.531-1.485,3.531-5.445c0-3.366-0.99-5.115-3.366-5.115z M81.09849,42.576l1.188,2.508c-1.617,1.188-3.465,2.046-5.61,2.046c-3.795,0-4.884-2.64-4.884-6.435l0-7.59l-3.069,0l0-3.201l3.069-0.429l0-4.554l4.95-0.891l0,5.445l4.62,0l0,3.63l-4.62,0l0,7.26c0,2.112,0.363,2.97,1.749,2.97c0.891,0,2.178-0.528,2.607-0.759z M93.65532,23.535l3.465,0c4.29,0,7.26,1.815,7.26,5.709c0,2.871-1.353,4.62-3.96,5.445c3.102,0.891,4.719,2.739,4.719,5.28c0,4.851-3.234,6.831-8.58,6.831l-10.494,0l0-2.805l2.475-0.99l0-15.51l-2.475-0.99l0-2.805z M93.65532,33.039l1.914,0c2.409,0,3.696-1.023,3.696-3.069c0-1.716-1.221-2.475-2.805-2.475l-2.805,0l0,5.544z M93.65532,42.84l2.739,0c2.31,0,3.531-1.056,3.531-2.871c0-2.409-1.386-3.465-4.356-3.465l-1.914,0l0,6.336z M117.20115,43.335l2.97,0.825l0,2.64l-10.593,0l0-2.64l2.64-0.825l0-18.546l-2.64-0.66l0-2.64l7.623-0.264l0,22.11z M135.03798,46.8l-0.594-2.145s-2.541,2.475-5.346,2.475c-3.201,0-5.148-1.881-5.148-5.181c0-3.894,2.937-5.445,7.953-5.445l2.31,0l0-1.815c0-1.683-0.891-2.409-2.541-2.409c-1.683,0-2.904,0.495-2.904,0.495l-0.495,2.079l-2.97,0l-0.231-4.884s3.993-1.32,7.161-1.32c5.016,0,6.93,1.749,6.93,6.534l0,8.151l2.475,0.594l0,2.64z M134.21298,39.309l-1.881,0c-2.574,0-3.597,0.66-3.597,2.145c0,1.254,0.693,1.98,1.947,1.98c1.749,0,3.531-1.914,3.531-1.914l0-2.211z M159.93681,41.421l1.65,2.904c-0.825,0.726-3.399,2.805-7.095,2.805c-5.445,0-8.58-3.366-8.58-8.976c0-5.874,3.3-9.504,9.075-9.504c2.838,0,5.775,1.155,5.775,1.155l-0.165,5.412l-2.97,0l-0.462-2.343s-0.957-0.264-2.277-0.264c-2.376,0-3.861,1.584-3.861,4.884c0,3.597,1.386,5.676,4.125,5.676c2.31,0,3.762-1.155,4.785-1.749z M172.62564,35.613l2.178,0l2.244-3.366l-1.452-0.462l0-2.64l8.514-0.165l0,2.805l-2.31,0.429l-3.069,4.323l3.696,6.831l2.508,0.792l0,2.64l-6.105,0l-4.092-8.052l-2.112,0l0,4.587l1.815,0.825l0,2.64l-9.405,0l0-2.64l2.64-0.825l0-18.546l-2.64-0.66l0-2.64l7.59-0.264l0,14.388z"/><path fill="#" d=""/></svg>
